{"title":"My.Little.Pony.Friendship.is.Magic.S01E11.Winter.Wrap.Up.1080p.W","uid":12106820,"size":680701138,"categoryP":"video","categoryS":"hd___tv_shows","magnet":"?xt=urn:btih:ff65abc95217bb1536eda20784b165cb7179a4f4&amp;dn=My.Little.Pony.Friendship.is.Magic.S01E11.Winter.Wrap.Up.1080p.W&amp;tr=udp%3A%2F%2Ftracker.openbittorrent.com%3A80&amp;tr=udp%3A%2F%2Fopen.demonii.com%3A1337&amp;tr=udp%3A%2F%2Ftracker.coppersurfer.tk%3A6969&amp;tr=udp%3A%2F%2Fexodus.desync.com%3A6969","seeders":0,"leechers":1,"uploader":"orangebirds","files":1,"time":1436467579,"description":"My.Little.Pony.Friendship.is.Magic.S01E11.Winter.Wrap.Up.1080p.WEB-DL.x264-orangebirds\n\nSource : iTunes AU (YayPonies)\n\nVideo converted using x264 with setting CRF 18 preset very slow\nAudio in AC3 5.1\nSubtitles available\n\nPlease help me seed, and don't forget to leave a comment!\n\nGeneral\nUnique ID                                : 194774149028953922209149384830050688670 (0x928822F84420CE4C8880E6FE8FE4DE9E)\nComplete name                            : My.Little.Pony.Friendship.is.Magic.S01E11.Winter.Wrap.Up.1080p.WEB-DL.x264-orangebirds.mkv\nFormat                                   : Matroska\nFormat version                           : Version 4 / Version 2\nFile size                                : 649 MiB\nDuration                                 : 22mn 6s\nOverall bit rate                         : 4 104 Kbps\nEncoded date                             : UTC 2015-07-09 16:43:30\nWriting application                      : mkvmerge v8.1.0 ('Psychedelic Postcard') 64bit\nWriting library                          : libebml v1.3.1 + libmatroska v1.4.2\nDURATION                                 : 00:22:06.912000000\nNUMBER_OF_FRAMES                         : 41466\nNUMBER_OF_BYTES                          : 63691776\n_STATISTICS_WRITING_APP                  : mkvmerge v8.1.0 ('Psychedelic Postcard') 64bit\n_STATISTICS_WRITING_DATE_UTC             : 2015-07-09 16:43:30\n_STATISTICS_TAGS                         : BPS DURATION NUMBER_OF_FRAMES NUMBER_OF_BYTES\n\nVideo\nID                                       : 1\nFormat                                   : AVC\nFormat/Info                              : Advanced Video Codec\nFormat profile                           : &lt;a class=&quot;__cf_email__&quot; href=&quot;/cdn-cgi/l/email-protection&quot; data-cfemail=&quot;bff7d6d8d7fff38b918e&quot;&gt;[email&amp;#160;protected]&lt;/a&gt;&lt;script data-cfhash='f9e31' type=&quot;text/javascript&quot;&gt;\n/* &lt;![CDATA[ */!function(){try{var t=&quot;currentScript&quot;in document?document.currentScript:function(){for(var t=document.getElementsByTagName(&quot;script&quot;),e=t.length;e--;)if(t[e].getAttribute(&quot;data-cfhash&quot;))return t[e]}();if(t&amp;&amp;t.previousSibling){var e,r,n,i,c=t.previousSibling,a=c.getAttribute(&quot;data-cfemail&quot;);if(a){for(e=&quot;&quot;,r=parseInt(a.substr(0,2),16),n=2;a.length-n;n+=2)i=parseInt(a.substr(n,2),16)^r,e+=String.fromCharCode(i);e=document.createTextNode(e),c.parentNode.replaceChild(e,c)}t.parentNode.removeChild(t);}}catch(u){}}()/* ]]&gt; */&lt;/script&gt;\nFormat settings, CABAC                   : Yes\nFormat settings, ReFrames                : 4 frames\nCodec ID                                 : V_MPEG4/ISO/AVC\nDuration                                 : 22mn 6s\nBit rate                                 : 3 638 Kbps\nWidth                                    : 1 920 pixels\nHeight                                   : 1 080 pixels\nDisplay aspect ratio                     : 16:9\nFrame rate mode                          : Constant\nFrame rate                               : 23.976 fps\nColor space                              : YUV\nChroma subsampling                       : 4:2:0\nBit depth                                : 8 bits\nScan type                                : Progressive\nBits/(Pixel*Frame)                       : 0.073\nStream size                              : 576 MiB (89%)\nWriting library                          : x264 core 144 r2525 40bb568\nEncoding settings                        : cabac=1 / ref=4 / deblock=1:0:0 / analyse=0x3:0x133 / me=umh / subme=10 / psy=1 / psy_rd=1.00:0.00 / mixed_ref=1 / me_range=24 / chroma_me=1 / trellis=2 / 8x8dct=1 / cqm=0 / deadzone=21,11 / fast_pskip=1 / chroma_qp_offset=-2 / threads=6 / lookahead_threads=1 / sliced_threads=0 / nr=0 / decimate=1 / interlaced=0 / bluray_compat=0 / constrained_intra=0 / bframes=8 / b_pyramid=2 / b_adapt=2 / b_bias=0 / direct=3 / weightb=1 / open_gop=0 / weightp=2 / keyint=240 / keyint_min=23 / scenecut=40 / intra_refresh=0 / rc_lookahead=60 / rc=crf / mbtree=1 / crf=18.0 / qcomp=0.60 / qpmin=0 / qpmax=69 / qpstep=4 / vbv_maxrate=62500 / vbv_bufsize=78125 / crf_max=0.0 / nal_hrd=none / filler=0 / ip_ratio=1.40 / aq=1:1.00\nDefault                                  : Yes\nForced                                   : No\n\nAudio\nID                                       : 2\nFormat                                   : AC-3\nFormat/Info                              : Audio Coding 3\nMode extension                           : CM (complete main)\nFormat settings, Endianness              : Big\nCodec ID                                 : A_AC3\nDuration                                 : 22mn 6s\nBit rate mode                            : Constant\nBit rate                                 : 384 Kbps\nChannel(s)                               : 6 channels\nChannel positions                        : Front: L C R, Side: L R, LFE\nSampling rate                            : 48.0 KHz\nBit depth                                : 16 bits\nCompression mode                         : Lossy\nStream size                              : 60.7 MiB (9%)\nTitle                                    : AC3 5.1\nLanguage                                 : English\nDefault                                  : Yes\nForced                                   : No\n\nText\nID                                       : 3\nFormat                                   : UTF-8\nCodec ID                                 : S_TEXT/UTF8\nCodec ID/Info                            : UTF-8 Plain Text\nTitle                                    : Subtitles\nLanguage                                 : English\nDefault                                  : Yes\nForced                                   : No","torrent":{"xt":"urn:btih:ff65abc95217bb1536eda20784b165cb7179a4f4","amp;dn":"My.Little.Pony.Friendship.is.Magic.S01E11.Winter.Wrap.Up.1080p.W","amp;tr":["udp%3A%2F%2Ftracker.openbittorrent.com%3A80","udp%3A%2F%2Fopen.demonii.com%3A1337","udp%3A%2F%2Ftracker.coppersurfer.tk%3A6969","udp%3A%2F%2Fexodus.desync.com%3A6969"],"infoHash":"ff65abc95217bb1536eda20784b165cb7179a4f4","infoHashBuffer":{"type":"Buffer","data":[255,101,171,201,82,23,187,21,54,237,162,7,132,177,101,203,113,121,164,244]},"announce":[],"urlList":[]}}